<svg  width="1396" height="686" xmlns="http://www.w3.org/2000/svg" version="1.1"><rect width="1396" height="686" fill="rgb(250,111,0)"></rect><path d="M 663 334 l 5000 0 A 5000 5000 0 0 1 5517.70908713026 1530.5783214377886 z" fill="rgb(255,250,0)" /><path d="M 663 334 l 4427.280128266049 2323.6158602188425 A 5000 5000 0 0 1 4405.553740855506 3649.613291203976 z" fill="rgb(255,250,0)" /><path d="M 663 334 l 2840.3237336557795 4114.919329468282 A 5000 5000 0 0 1 2436.024435212678 5009.0812134270745 z" fill="rgb(255,250,0)" /><path d="M 663 334 l 602.6834012766151 4963.54437049027 A 5000 5000 0 0 1 60.316598723385596 5297.54437049027 z" fill="rgb(255,250,0)" /><path d="M 663 334 l -1773.0244352126772 4675.0812134270745 A 5000 5000 0 0 1 -2177.3237336557786 4448.919329468283 z" fill="rgb(255,250,0)" /><path d="M 663 334 l -3742.553740855506 3315.613291203976 A 5000 5000 0 0 1 -3764.2801282660475 2657.6158602188452 z" fill="rgb(255,250,0)" /><path d="M 663 334 l -4854.70908713026 1196.5783214377884 A 5000 5000 0 0 1 -4337 333.9999999999984 z" fill="rgb(255,250,0)" /><path d="M 663 334 l -4854.709087130261 -1196.5783214377873 A 5000 5000 0 0 1 -3764.2801282660503 -1989.6158602188402 z" fill="rgb(255,250,0)" /><path d="M 663 334 l -3742.5537408555065 -3315.6132912039748 A 5000 5000 0 0 1 -2177.3237336557795 -3780.919329468282 z" fill="rgb(255,250,0)" /><path d="M 663 334 l -1773.0244352126795 -4675.081213427074 A 5000 5000 0 0 1 60.31659872338207 -4629.54437049027 z" fill="rgb(255,250,0)" /><path d="M 663 334 l 602.683401276616 -4963.54437049027 A 5000 5000 0 0 1 2436.024435212678 -4341.0812134270745 z" fill="rgb(255,250,0)" /><path d="M 663 334 l 2840.323733655774 -4114.9193294682855 A 5000 5000 0 0 1 4405.553740855504 -2981.6132912039775 z" fill="rgb(255,250,0)" /><path d="M 663 334 l 4427.28012826605 -2323.615860218842 A 5000 5000 0 0 1 5517.70908713026 -862.5783214377889 z" fill="rgb(255,250,0)" /></svg>